<svg width="1440" height="1024" viewBox="0 0 1440 1024" fill="none" xmlns="http://www.w3.org/2000/svg">
<path d="M1440 0H0V1024H1440V0Z" fill="#F9FBFC"/>
<path d="M1440 1024V720.14C1398.57 718.577 1334.22 729.259 1273.21 793.11C1172.14 898.873 1227.24 940.815 1082.56 986.407C1052.62 995.859 1027.71 1009.03 1007 1024H1440Z" fill="#211D98"/>
<path d="M0 0V372C15.477 369.895 30.8384 366.634 46.0011 362.236C215.559 313.321 160.012 106.254 312.034 72.8716C383.376 57.1966 420.595 27.3113 440 0H0Z" fill="#211D98"/>
<path d="M612 989.177C641.425 989.177 665.278 972.215 665.278 951.291C665.278 930.368 641.425 913.406 612 913.406C582.575 913.406 558.722 930.368 558.722 951.291C558.722 972.215 582.575 989.177 612 989.177Z" fill="#211D98"/>
<path d="M764.086 11.3056C764.086 58.9167 818.354 97.5127 885.315 97.5127C952.276 97.5127 1006.55 58.9167 1006.55 11.3056C1006.54 7.50434 1006.19 3.71451 1005.49 0H765.161C764.459 3.71363 764.098 7.50347 764.086 11.3056Z" fill="#211D98"/>
<path d="M476.644 997.371C488.574 997.371 498.244 990.494 498.244 982.011C498.244 973.528 488.574 966.651 476.644 966.651C464.715 966.651 455.044 973.528 455.044 982.011C455.044 990.494 464.715 997.371 476.644 997.371Z" fill="#211D98"/>
<path d="M1129.5 64.294C1141.43 64.294 1151.1 57.4171 1151.1 48.934C1151.1 40.4509 1141.43 33.574 1129.5 33.574C1117.57 33.574 1107.9 40.4509 1107.9 48.934C1107.9 57.4171 1117.57 64.294 1129.5 64.294Z" fill="#211D98"/>
</svg>
