<svg xmlns="http://www.w3.org/2000/svg" width="144" height="155.439" viewBox="0 0 144 155.439">
  <g id="Group_20" data-name="Group 20" transform="translate(-5145.483 -1714.221)">
    <path id="Path_144" data-name="Path 144" d="M709.351,636.366c-22.96,10.44-52.53,9.7-52.53,9.7h-32v-6.11c13.04-3.64,31.07-5.89,51-5.89A233.662,233.662,0,0,1,709.351,636.366Z" transform="translate(4541.662 1195.594)" opacity="0.1"/>
    <path id="Path_145" data-name="Path 145" d="M747.821,654.066c0,11.05-32.24,20-72,20s-72-8.95-72-20c0-5.51,8.02-10.5,21-14.11v6.11h32s29.57.74,52.53-9.7C732.221,639.706,747.821,646.376,747.821,654.066Z" transform="translate(4541.662 1195.594)" opacity="0.1"/>
    <rect id="Rectangle_283" data-name="Rectangle 283" width="30.635" height="30.69" transform="translate(5196.044 1725.13)" fill="#2f2e41"/>
    <path id="Path_146" data-name="Path 146" d="M665.775,551.238s2.536,8.875-1.9,9.509a17.324,17.324,0,0,0-7.607,3.17l8.241,10.777h15.214l9.509-9.509s-12.679-9.509-10.143-15.214S665.775,551.238,665.775,551.238Z" transform="translate(4541.662 1195.594)" fill="#ffb9b9"/>
    <path id="Path_147" data-name="Path 147" d="M665.775,551.238s2.536,8.875-1.9,9.509a17.324,17.324,0,0,0-7.607,3.17l8.241,10.777h15.214l9.509-9.509s-12.679-9.509-10.143-15.214S665.775,551.238,665.775,551.238Z" transform="translate(4541.662 1195.594)" opacity="0.1"/>
    <path id="Path_148" data-name="Path 148" d="M536.239,526.136l14.581,5.071,10.142.634-.634-8.875-20.919-6.187Z" transform="translate(4675.001 1331)" fill="#ffb9b9"/>
    <path id="Path_149" data-name="Path 149" d="M688.279,659.641s0,8.875,1.268,8.875,18.384-1.9,23.456,0,12.679-5.071,8.875-8.875S711.87,650.132,708,651.4s-19.719,4.438-19.719,4.438Z" transform="translate(4541.662 1195.594)" fill="#2f2e41"/>
    <path id="Path_150" data-name="Path 150" d="M641.685,651.4s-7.607,15.214-2.536,16.482,10.777-.634,11.411-1.268,9.509-3.17,10.777-1.9,1.268-5.071,1.268-5.071Z" transform="translate(4541.662 1195.594)" fill="#2f2e41"/>
    <path id="Path_151" data-name="Path 151" d="M648.025,630.48s-12.045,16.482-3.17,20.92,51.349,4.438,54.518,0,4.438-18.384,0-19.652S648.025,630.48,648.025,630.48Z" transform="translate(4541.662 1195.594)" fill="#2f2e41"/>
    <path id="Path_152" data-name="Path 152" d="M648.025,630.48s-12.045,16.482-3.17,20.92,51.349,4.438,54.518,0,4.438-18.384,0-19.652S648.025,630.48,648.025,630.48Z" transform="translate(4541.662 1195.594)" opacity="0.2"/>
    <circle id="Ellipse_45" data-name="Ellipse 45" cx="14.58" cy="14.58" r="14.58" transform="translate(5197.928 1722.109)" fill="#ffb9b9"/>
    <path id="Path_153" data-name="Path 153" d="M648.025,563.917l12.679-2.536s3.17,10.143,13.313,8.241,12.679-8.241,12.679-8.241,7.607,3.17,8.241,3.17,8.875,3.17,8.875,5.071-9.509,20.92-9.509,20.92l1.268,34.232-46.911-1.268,3.17-33.6Z" transform="translate(4541.662 1195.594)" fill="#536dfe"/>
    <path id="Path_154" data-name="Path 154" d="M641.051,580.4s-3.8,33.6-1.268,36.134,12.679,9.509,12.679,9.509v-7.607l-5.071-9.509,5.071-22.188Z" transform="translate(4541.662 1195.594)" fill="#ffb9b9"/>
    <path id="Path_155" data-name="Path 155" d="M706.663,579.448s-2.219,34.549-2.219,35.817-5.705,5.705-7.607,5.705-3.17-3.17-3.17-3.17l4.438-5.071-3.17-25.991Z" transform="translate(4541.662 1195.594)" fill="#ffb9b9"/>
    <path id="Path_156" data-name="Path 156" d="M700.641,627.944s28.527-15.848,29.161,0-14.58,22.188-14.58,22.188-39.3,11.786-40.889,7.478-4.755-11.281-2.219-11.915,5.705-1.9,6.973-.634,17.116-9.509,17.116-9.509Z" transform="translate(4541.662 1195.594)" fill="#2f2e41"/>
    <path id="Path_157" data-name="Path 157" d="M713.954,626.042s-5.705,2.536-7.607,4.438-10.143,5.071-10.143,5.071" transform="translate(4541.662 1195.594)" fill="none" stroke="#000" stroke-miterlimit="10" stroke-width="2" opacity="0.2"/>
    <path id="Path_158" data-name="Path 158" d="M651.828,565.185l-3.8-1.268s-13.946,14.58-9.509,18.384,6.973,5.071,8.241,6.339,7.607,1.9,7.607,1.9Z" transform="translate(4541.662 1195.594)" fill="#536dfe"/>
    <path id="Path_159" data-name="Path 159" d="M698.1,568.354l5.705,1.268s4.438,9.509,5.705,10.777-1.9.634-3.8,3.17-3.8,6.973-7.607,6.973-8.875-6.339-8.875-6.339Z" transform="translate(4541.662 1195.594)" fill="#536dfe"/>
    <path id="Path_160" data-name="Path 160" d="M649.293,633.65s-24.089-17.116-32.331-4.437,35.5,29.795,41.839,32.331,12.045,5.071,12.045,5.071,5.705-13.946,5.705-16.482-4.437-2.536-5.705-2.536-6.973-1.268-8.241-3.17S649.293,633.65,649.293,633.65Z" transform="translate(4541.662 1195.594)" fill="#2f2e41"/>
    <path id="Path_161" data-name="Path 161" d="M635.98,629.212s6.339,5.071,12.045,6.339,7.607,4.438,7.607,4.438" transform="translate(4541.662 1195.594)" fill="none" stroke="#000" stroke-miterlimit="10" stroke-width="2" opacity="0.2"/>
    <path id="Path_162" data-name="Path 162" d="M644.92,605.376l.506,26.841a3.36,3.36,0,0,0,3.4,3.3l49.949-.561a3.36,3.36,0,0,0,3.317-3.166l1.516-26.28a3.36,3.36,0,0,0-3.354-3.554H648.279a3.36,3.36,0,0,0-3.359,3.423Z" transform="translate(4541.662 1195.594)" fill="#575a89"/>
    <path id="Path_163" data-name="Path 163" d="M639.142,564.077c1.36-3,3.189-5.819,4.06-9,1.044-3.81.638-7.841.513-11.789a37.016,37.016,0,0,1,.884-10.4,17.885,17.885,0,0,1,5.142-8.953c6.643-5.931,18.8-6.356,26.914-3.888,3.2.973,6.6,2.827,7.4,6.074.12.49.173,1,.307,1.482.664,2.418,3.138,3.948,4.03,6.291,1.154,3.031-.626,6.327-.858,9.561-.272,3.777,1.585,7.344,3.415,10.659,1.088,1.971,2.219,4.07,2.111,6.318a7.982,7.982,0,0,1-1.092,3.483,13.281,13.281,0,0,1-11.156,6.395,7,7,0,0,1-4.179-.986c-1.98-1.363-2.56-4.108-2.147-6.476s1.614-4.51,2.556-6.721c.289-.679.55-1.369.79-2.066a14.185,14.185,0,1,0-9.357,1.587,19.216,19.216,0,0,1-.93,10.685,40.344,40.344,0,0,1-4.487,7.823,10.8,10.8,0,0,1-2.858,3.2,10.143,10.143,0,0,1-2.435,1.04c-3.581,1.152-7.351,2.078-11.077,1.56s-7.415-2.765-8.684-6.306C636.888,570.546,637.781,567.079,639.142,564.077Z" transform="translate(4541.662 1195.594)" fill="#2f2e41"/>
    <ellipse id="Ellipse_46" data-name="Ellipse 46" cx="15.474" cy="8.768" rx="15.474" ry="8.768" transform="translate(5196.328 1719.734)" fill="#2f2e41"/>
  </g>
</svg>
