<svg xmlns="http://www.w3.org/2000/svg" width="414" height="754.849" viewBox="0 0 414 754.849">
  <g id="Group_24" data-name="Group 24" transform="translate(0 0)">
    <ellipse id="Ellipse_23" data-name="Ellipse 23" cx="144.421" cy="18.742" rx="144.421" ry="18.742" transform="translate(125.158 717.365)" fill="#3f3d56"/>
    <path id="Path_67" data-name="Path 67" d="M971.624,175.593s-4.08,30.311,6.412,33.808,7.578,30.311,7.578,30.311l-31.476,23.9-27.979,2.332-6.995-36.14,4.081-9.326s15.738-18.653,4.663-37.888S971.624,175.593,971.624,175.593Z" transform="translate(-746 -109.552)" fill="#ffb9b9"/>
    <path id="Path_68" data-name="Path 68" d="M971.624,175.593s-4.08,30.311,6.412,33.808,7.578,30.311,7.578,30.311l-31.476,23.9-27.979,2.332-6.995-36.14,4.081-9.326s15.738-18.653,4.663-37.888S971.624,175.593,971.624,175.593Z" transform="translate(-746 -109.552)" opacity="0.1"/>
    <path id="Path_69" data-name="Path 69" d="M942.48,411.666l-36.723,86.269s-28.562-16.321-45.466-14.572S822.4,464.71,822.4,464.71l20.984-101.424L882.441,255.45l54.209,34.391Z" transform="translate(-746 -109.552)" fill="#575a89"/>
    <path id="Path_70" data-name="Path 70" d="M942.48,411.666l-36.723,86.269s-28.562-16.321-45.466-14.572S822.4,464.71,822.4,464.71l20.984-101.424L882.441,255.45l54.209,34.391Z" transform="translate(-746 -109.552)" opacity="0.1"/>
    <path id="Path_71" data-name="Path 71" d="M960.186,743.708v27.979h-26.23l4.08-32.642Z" transform="translate(-706 -74.952)" fill="#575a89"/>
    <path id="Path_72" data-name="Path 72" d="M1028.39,695.328l19.23,11.658-13.99,32.059-14.57-1.749-13.99-19.818Z" transform="translate(-706 -74.952)" fill="#575a89"/>
    <path id="Path_73" data-name="Path 73" d="M1005.43,403.505l34.391,81.023s-12.241,89.766-11.658,97.344,1.166,10.492-1.749,16.9-4.08,10.492-2.332,18.07,2.332,10.492,1.166,13.407-9.326,122.991-13.407,131.152,2.332,21.567-1.749,22.733-34.391-1.749-36.14-8.743,5.829-23.9,1.749-29.145.583-194.1-5.246-206.928-69.948-24.482-69.948-24.482-5.829-37.305-2.332-43.134,8.163-42.551,8.163-42.551Z" transform="translate(-746 -109.552)" fill="#2f2e41"/>
    <path id="Path_74" data-name="Path 74" d="M971.624,801.624s16.321-19.236,30.311,0c0,0,1.166,22.733,11.075,27.4s5.246,23.316-8.743,23.9-32.059,2.914-32.642-4.663,2.332-12.241-2.914-14.572,0-15.738,0-15.738Z" transform="translate(-746 -109.552)" fill="#2f2e41"/>
    <path id="Path_75" data-name="Path 75" d="M973.373,523s-.583,41.969-4.663,47.8-6.412,9.326-4.08,15.738,5.829,18.07,4.08,20.4,1.749,14.572,1.749,14.572,44.883,21.567,65.867,66.45c0,0,21.567,35.557,27.979,36.14s13.99-4.08,10.492,9.326-16.9,30.893-26.813,29.145-17.484-18.652-17.484-18.652-77.525-78.691-85.686-81.023-31.476-20.984-35.557-32.642-12.824-109-8.743-115.413,19.236-15.155,19.236-15.155Z" transform="translate(-746 -109.552)" fill="#2f2e41"/>
    <path id="Path_76" data-name="Path 76" d="M1074.21,727.6s36.14,1.166,36.723,9.909-15.155,60.621-12.824,72.862-18.07,40.22-31.476,34.391-2.915-36.14-2.915-36.14-13.407-41.386-11.075-41.969,25.647-7.578,24.482-14.572S1074.21,727.6,1074.21,727.6Z" transform="translate(-746 -109.552)" fill="#2f2e41"/>
    <circle id="Ellipse_24" data-name="Ellipse 24" cx="36.14" cy="36.14" r="36.14" transform="translate(162.38 24.948)" fill="#ffb9b9"/>
    <path id="Path_77" data-name="Path 77" d="M980.951,226.3s-19.818,20.984-34.391,17.487-22.15-28.562-22.15-28.562l-26.23-4.663s-18.653,82.771-18.653,90.932,18.653,96.178,18.653,111.916-15.155,25.065,8.161,24.482,12.241-8.161,46.049-8.743,39.054,6.995,46.049-5.246a97.522,97.522,0,0,1,17.487-21.567l-12.241-43.134L1001.93,237.38s-14.944-29.145-21.753-26.813C980.182,210.567,983.865,223.39,980.951,226.3Z" transform="translate(-746 -109.552)" fill="#536dfe"/>
    <path id="Path_78" data-name="Path 78" d="M973.771,205.411s31.078,3.407,39.822,9.819,33.225,11.075,32.642,15.738-28.562,71.113-28.562,71.113-12.824,52.461-1.749,64.7,52.461,145.724,45.466,156.8-29.145-33.808-29.145-33.808-29.728-96.178-46.049-112.5S968.71,272.937,968.71,268.856,973.771,205.411,973.771,205.411Z" transform="translate(-746 -109.552)" fill="#575a89"/>
    <path id="Path_79" data-name="Path 79" d="M928.313,212.172s-38.294-14.429-51.7-8.6-21.567,6.995-21.567,6.995l-4.663,57.124s-1.749,82.188-16.9,102.007-25.065,102.59-22.733,110.75-4.08,22.15,5.829,18.653,37.305-83.937,37.305-83.937,0-46.049,16.321-58.872,43.134-65.867,44.3-78.691,12.241-48.38,12.241-48.38Z" transform="translate(-746 -109.552)" fill="#575a89"/>
    <path id="Path_80" data-name="Path 80" d="M1059.64,395.928s-17.49,32.642-19.82,38.471-18.653,45.466-41.969,36.723,22.733-51.295,22.733-51.295l10.492-35.557S1058.48,378.441,1059.64,395.928Z" transform="translate(-746 -109.552)" fill="#ffb9b9"/>
    <path id="Path_81" data-name="Path 81" d="M860.874,210.567h-5.829s-5.829-4.663-12.824-1.749-23.316-1.166-23.316.583-18.07-5.246-25.647-1.749-34.974,4.663-34.974,4.663-11.075,27.979-3.5,33.225,18.653,1.166,23.9,5.246,15.155-.583,18.653,4.663,16.321,14.572,19.236,8.743-2.914-11.075,9.326-4.663,31.476,6.412,31.476,6.412Z" transform="translate(-746 -109.552)" fill="#575a89"/>
    <path id="Path_82" data-name="Path 82" d="M947.778,143.937c-4.89-1.13-9.967.122-14.92.934s-10.412,1.079-14.6-1.684c-3.094-2.041-5-5.418-6.783-8.665a9.975,9.975,0,0,1-1.459-3.823c-.21-2.4,1.318-4.594,2.94-6.377,7.537-8.285,18.551-12.819,29.658-14.26,9.13-1.184,18.65-.391,27.081,3.307s15.68,10.47,18.995,19.06a54.128,54.128,0,0,1,2.837,13.611,40.654,40.654,0,0,1,.191,10.308,44.193,44.193,0,0,1-2,7.468L984.227,180.4a10.925,10.925,0,0,1-2.159,4.274,3.736,3.736,0,0,1-4.374.958,13.614,13.614,0,0,0,.2-5.5,4.641,4.641,0,0,0-3.662-3.693c-2.024-.215-3.753,1.354-5.673,2.03a6.979,6.979,0,0,1-8.811-5.245c-.3-1.9.206-3.925-.513-5.705-.842-2.086-3.074-3.179-4.751-4.677a10.936,10.936,0,0,1-3-11.366c.449-1.38,1.717-2.007,1.463-3.592C952.61,145.8,949.544,144.345,947.778,143.937Z" transform="translate(-746 -109.552)" fill="#2f2e41"/>
    <path id="Path_84" data-name="Path 84" d="M764.308,212.282c10.628.462,18.526,10.1,17.376,20.677-1.042,9.582-4.884,21.5-16.987,26.084-21.567,8.161-20.4-37.888-16.321-39.637C751.095,218.24,755.37,211.893,764.308,212.282Z" transform="translate(-746 -109.552)" fill="#ffb9b9"/>
    <path id="Path_85" data-name="Path 85" d="M1039.82,227.854l6.412,3.114s13.99,28.562,14.572,32.642,9.909,19.236,6.412,23.316-8.743,14.572-5.246,18.653,11.658,20.4,11.658,26.23-8.743,21.567-2.914,23.316,4.08,24.482,2.914,26.23-16.321,30.311-16.321,30.311-2.914-32.642-31.476-19.236c0,0-2.332-16.321,0-17.487s8.161-8.161,3.5-9.326-11.075-15.155-9.909-16.9,4.08-4.08,1.166-5.829-5.246-11.658-4.663-13.407-6.412-9.909-6.412-9.909Z" transform="translate(-746 -109.552)" fill="#575a89"/>
  </g>
</svg>
