<svg xmlns="http://www.w3.org/2000/svg" width="345.933" height="370" viewBox="0 0 345.933 370">
  <g id="Group_58" data-name="Group 58" transform="translate(10401.933 2400.385)">
    <ellipse id="Ellipse_110" data-name="Ellipse 110" cx="115" cy="16" rx="115" ry="16" transform="translate(-10353 -2062.385)" opacity="0.1"/>
    <path id="Path_429" data-name="Path 429" d="M787,725.307H776v93s71,23,140,0v-93Z" transform="translate(-11075 -2863.693)" fill="#3f3d56"/>
    <ellipse id="Ellipse_112" data-name="Ellipse 112" cx="69" cy="10.5" rx="69" ry="10.5" transform="translate(-10299 -2148.385)" fill="#3f3d56"/>
    <ellipse id="Ellipse_113" data-name="Ellipse 113" cx="69" cy="10.5" rx="69" ry="10.5" transform="translate(-10299 -2148.385)" opacity="0.1"/>
    <path id="Path_430" data-name="Path 430" d="M925.208,614.193c-17.406,64.345-77.027,104.2-77.027,104.2s-31.4-64.473-13.993-128.818,77.027-104.2,77.027-104.2S942.615,549.849,925.208,614.193Z" transform="translate(-11075 -2863.693)" fill="#3f3d56"/>
    <path id="Path_431" data-name="Path 431" d="M766.858,614.193c17.406,64.345,77.027,104.2,77.027,104.2s31.4-64.473,13.993-128.818-77.027-104.2-77.027-104.2S749.452,549.849,766.858,614.193Z" transform="translate(-11075 -2863.693)" fill="#536dfe"/>
    <path id="Path_432" data-name="Path 432" d="M792.436,600.365c47.763,46.5,53.6,117.971,53.6,117.971s-71.606-3.91-119.369-50.406-53.6-117.971-53.6-117.971S744.672,553.869,792.436,600.365Z" transform="translate(-11075 -2863.693)" fill="#3f3d56"/>
    <path id="Path_433" data-name="Path 433" d="M899.63,600.365c-47.763,46.5-53.6,117.971-53.6,117.971s71.606-3.91,119.369-50.406S1019,549.96,1019,549.96,947.394,553.869,899.63,600.365Z" transform="translate(-11075 -2863.693)" fill="#3f3d56"/>
    <circle id="Ellipse_114" data-name="Ellipse 114" cx="22" cy="22" r="22" transform="translate(-10251 -2400.385)" fill="#536dfe"/>
  </g>
</svg>
