<svg xmlns="http://www.w3.org/2000/svg" width="457.672" height="351.626" viewBox="0 0 457.672 351.626">
  <g id="Group_73" data-name="Group 73" transform="translate(6770.672 11419.012)">
    <g id="Group_68" data-name="Group 68" transform="translate(-6770.672 -11419.012)">
      <path id="Path_417" data-name="Path 417" d="M305.76,163.615,596.53,363.232l19.845-28.906L367.706,163.615Z" transform="translate(-210.227 -163.615)" fill="#f2f2f2"/>
      <path id="Path_418" data-name="Path 418" d="M268.76,163.615v28.906L677.823,473.344l19.845-28.906L288.6,163.615Z" transform="translate(-268.76 -163.615)" fill="#f2f2f2"/>
    </g>
    <g id="Group_67" data-name="Group 67" transform="translate(-7256 -12009)">
      <ellipse id="Ellipse_111" data-name="Ellipse 111" cx="83.971" cy="11.003" rx="83.971" ry="11.003" transform="translate(732.784 919.608)" opacity="0.1"/>
      <path id="Path_420" data-name="Path 420" d="M451.33,220.356l14.71-3.362,10.927,3.362L393.752,517.913l-11.767,6.725L393.752,372.5Z" transform="translate(466.033 404.593)" fill="#536dfe"/>
      <path id="Path_423" data-name="Path 423" d="M262.482,545.051c23.528,21.284,19.09,42.7,3.483,59.954q-.544.6-1.1,1.184-1.111,1.176-2.257,2.275c-15.188,14.574-34.769,18.861-56.65-.933-22.644-20.484-25.041-75.276-25.191-79.358,0,0,0,0,0-.006-.006-.155-.008-.234-.008-.234S238.955,523.769,262.482,545.051Z" transform="translate(489.918 236.975)" fill="#536dfe"/>
      <path id="Path_424" data-name="Path 424" d="M261.256,603.217l-5.629-25.867,7.355,27.481,1.805,1.689q-1.111,1.176-2.257,2.275l-22.425-22.523-.191-.155-.015-.052-2.118-2.129-28.149-4.583,26.514,3.041.5.4L219.7,565.774,192.455,559l24.23,3.824-36-34.322-.119-.115.121.109,28.932,26.464-2.676-20.212,5.142,22.519,15.69,14.664-7.013-22.964,9.322,25.118,8.725,8.154-9.273-32.507,12.315,35.353Z" transform="translate(490 236.645)" fill="#3f3d56"/>
      <path id="Path_425" data-name="Path 425" d="M358.448,488.307A98.448,98.448,0,1,0,456.9,586.755,98.448,98.448,0,0,0,358.448,488.307Zm1.737,122.481c-11.034,0-19.979-10.89-19.979-24.323s8.945-24.323,19.979-24.323,19.979,10.89,19.979,24.323S371.22,610.788,360.186,610.788Z" transform="translate(456.569 253.515)" fill="#3f3d56"/>
      <path id="Path_426" data-name="Path 426" d="M403.6,658.988c-11.034,0-19.979-10.89-19.979-24.323s8.945-24.323,19.979-24.323c10.686,0,19.413,10.214,19.953,23.06.012-.351.027-.7.027-1.054A29.529,29.529,0,1,0,407.967,658.4,16.626,16.626,0,0,1,403.6,658.988Z" transform="translate(412.577 205.316)" opacity="0.1"/>
      <path id="Path_434" data-name="Path 434" d="M429.484,313.661s24.523.667,28.573,2.14,5.861,12.01,5.861,12.01L444.878,333.8l-14.241-.807-10.718.757,5.985-15.674Z" transform="translate(389.26 327.022)" fill="#2f2e41"/>
      <path id="Path_435" data-name="Path 435" d="M436.506,299.766s1.613,6.232-1.967,10.644,15.394,20.136,15.394,20.136l10.01-1.721s-2.206-19.148.757-24S436.506,299.766,436.506,299.766Z" transform="translate(383.296 332.87)" fill="#ecbcb4"/>
      <path id="Path_436" data-name="Path 436" d="M436.506,299.766s1.613,6.232-1.967,10.644,15.394,20.136,15.394,20.136l10.01-1.721s-2.206-19.148.757-24S436.506,299.766,436.506,299.766Z" transform="translate(383.296 332.87)" opacity="0.1"/>
      <path id="Path_437" data-name="Path 437" d="M432.168,550.693l-22.087,29.29,15.073,8.8,20.745-33.94Z" transform="translate(454.207 264.142)" fill="#ecbcb4"/>
      <path id="Path_438" data-name="Path 438" d="M518.993,660.255s-8.133-9.45-7.771-7.343-5.787,19.979-.066,21.708,54.784,6.314,55.459.774-14.637-9.418-14.637-9.418-9.1-8.742-11.113-7.853S518.993,660.255,518.993,660.255Z" transform="translate(351.89 184.363)" fill="#2f2e41"/>
      <path id="Path_439" data-name="Path 439" d="M439.663,597.35,457.3,627.4l13.319-7.713-17.789-24.606Z" transform="translate(441.756 245.457)" fill="#ecbcb4"/>
      <path id="Path_440" data-name="Path 440" d="M572.59,537.7l-5.236,7.409s-24.959,34.665-22.309,37.464,13.69,13.377,19.3,11.327,25.56-37.481,25.56-37.481l-5.2-20.8Z" transform="translate(336.678 233.601)" fill="#2f2e41"/>
      <path id="Path_441" data-name="Path 441" d="M406.348,497.746s5.59,10.43,19.757,13.961,28.968,10.751,29.5,10.66,2.017-.889,2.379,1.218,4.248,5.779,4.248,5.779,15.649,53.179,21.626,53.236,18.259-4.223,18.514-5.894-18.3-55.978-18.481-57.031l-2.173-12.644s24.54,3.918,26.828,4.61,22.646,11.837,22.646,11.837,20.753-14.958,1.342-30.063-52.776-26.186-52.776-26.186l-11.969-3.367-10.432-.623-1.536-5.89-24.706,1.425-25.783,10.941Z" transform="translate(395.402 266.544)" fill="#2f2e41"/>
      <circle id="Ellipse_115" data-name="Ellipse 115" cx="19.245" cy="19.245" r="19.245" transform="translate(815.112 606.551)" fill="#ecbcb4"/>
      <path id="Path_442" data-name="Path 442" d="M424.7,314.374l2.315-.4s4.18,16.1,17.113,18.755c0,0,6.381-7.644,6.109-8.934s5.054-8.172,7.885-4.319-.691,71.717,1.688,72.936,7.483,2.511,3.375,7.014-20.424,10.562-24.037,8.471-11-19.806-14.192-25.766-8.306-26.235-8.306-26.235-6.528-22.2-2.511-27.231S424.7,314.374,424.7,314.374Z" transform="translate(392.241 326.889)" fill="#d0cde1"/>
      <path id="Path_443" data-name="Path 443" d="M431.231,396.219a109.784,109.784,0,0,1-2.2,14.054c-.944,3.769-2.043,6.044-3.3,5.947-3.2-.239-4.654,4.454-5.4,9.865-.8,5.74-.8,12.289-1.241,14.6-.582,3.058-4.305,5.391-11.746,4.706a52.5,52.5,0,0,1-12.942-3.174c-10.046-3.652-9.749-33.273-8.068-55.252,1.028-13.472,2.573-24.08,2.573-24.08a119.611,119.611,0,0,1-4.027-15.34,20.39,20.39,0,0,1-.291-3.446c.149-5.45,10.1-20.176,16.11-29.349s14.228-2.444,14.228-2.444l-2.857,8.624s4.428,6.833,4.461,13.336,10.6,11.2,14.4,14.345C433.306,350.593,433.248,377,431.231,396.219Z" transform="translate(404.133 328.592)" fill="#2f2e41"/>
      <path id="Path_444" data-name="Path 444" d="M478.689,319.361s.693.82,3.869.42c3.808-.48,9.045.838,10.261,4.474,2.231,6.668,8.52,33.792,8.52,33.792s2.618,31.01,3.8,37.859.593,12.916,1.753,16.513-11.459-6.709-16.11-5.367-7.639-16.044-7.055-22.111,1.078-12.661-.535-18.892,1.247-22.724,1.14-26.5S474.073,326.244,478.689,319.361Z" transform="translate(365.031 324.623)" fill="#2f2e41"/>
      <path id="Path_445" data-name="Path 445" d="M499.5,485.787s20.376,11.116,22.326,26.939-27.254-15.32-27.254-15.32Z" transform="translate(357.841 254.576)" fill="#ecbcb4"/>
      <path id="Path_446" data-name="Path 446" d="M523.164,465.1s6.244,31.472,15.97,29.8-5.433-31.611-5.433-31.611Z" transform="translate(345.805 264.047)" fill="#ecbcb4"/>
      <path id="Path_447" data-name="Path 447" d="M574.313,700.031s-4.98,5.738-6.215,4.865-4.075,11.006-1.515,13.278,12.422,6,12.529,9.78,26.556,3.029,27.5-.93-3.318-12.99-6.314-14.645S586.226,695.5,586.226,695.5,577.548,696.764,574.313,700.031Z" transform="translate(327.966 166.311)" fill="#2f2e41"/>
      <path id="Path_448" data-name="Path 448" d="M450.17,456.382c-4.726-3.336-17.92-4.163-29.633-4.932-5.139-.33-9.994-.653-13.724-1.177-3.594-.5-6.827-3.782-9.7-8.675-4.351-7.415-7.867-18.534-10.576-29.265,1.028-13.472,2.573-24.08,2.573-24.08a119.609,119.609,0,0,1-4.027-15.34,8.209,8.209,0,0,1,2.6-2.34c12.425-5.333,24.287,47.152,25.793,55.388.026.136.045.265.065.375.73,4.241,8.624,7.867,15.7,9.3,4.357.886,8.41.944,10.279-.207,4.907-3.012,19.995,9.044,21.139,9.386S456.958,461.185,450.17,456.382Z" transform="translate(403.921 303.228)" opacity="0.1"/>
      <path id="Path_449" data-name="Path 449" d="M385.165,364.993s-9.031,4.264-5.063,24.194S392.064,443,404.288,444.7,440.855,446,447.646,450.8s11.631-11.22,10.487-11.566-16.234-12.4-21.14-9.384-24.795-2.247-25.972-9.1S397.793,359.568,385.165,364.993Z" transform="translate(406.443 305.577)" fill="#2f2e41"/>
      <path id="Path_450" data-name="Path 450" d="M501.946,348.765l9.925,23.029s1-.5,2.16,3.1,1.7,6.758,3.737,9.121,11.08,36.064,11.352,37.645-12.5,7.029-15.348,2.638S501.946,348.765,501.946,348.765Z" transform="translate(354.736 312.247)" fill="#2f2e41"/>
      <path id="Path_451" data-name="Path 451" d="M435.6,268.9c.738-.2.846-1.176.871-1.939.132-4.086,2.593-8.278,6.5-9.468a10.935,10.935,0,0,1,4.609-.254,17.457,17.457,0,0,1,6.242,2.082A9.737,9.737,0,0,0,457,260.758c.763.116,4.067,1.076,4.827,1.211,1.671.3,3.223,1.792,4.826,1.236,1.534-.532,1.873-2.518,1.91-4.141.084-3.7-2.722-8.815-5.195-11.565-1.876-2.087-4.7-3.051-7.462-3.552a49.684,49.684,0,0,0-9.759-.594c-4.419.079-8.961.42-12.946,2.332s-7.332,5.718-7.523,10.134c-.04.92.055,1.844-.022,2.761-.189,2.238-1.377,4.26-1.935,6.436a11.776,11.776,0,0,0,1.645,9.411c1.479,2.176,3.8,4.145,3.718,6.775l3.207-3.322a2.633,2.633,0,0,0,.783-3.217l-1.135-4.427a4,4,0,0,1-.1-2.464C433.053,264.764,434.369,269.227,435.6,268.9Z" transform="translate(387.809 356.629)" fill="#2f2e41"/>
    </g>
  </g>
</svg>
