<svg xmlns="http://www.w3.org/2000/svg" xmlns:xlink="http://www.w3.org/1999/xlink" width="1920" height="1082" viewBox="0 0 1920 1082">
  <defs>
    <clipPath id="clip-path">
      <rect id="Rectangle_503" data-name="Rectangle 503" width="1920" height="1082" transform="translate(-11511 -9780)" fill="#fff" stroke="#707070" stroke-width="1"/>
    </clipPath>
    <clipPath id="clip-path-2">
      <rect width="183" height="189" fill="none"/>
    </clipPath>
  </defs>
  <g id="Mask_Group_2" data-name="Mask Group 2" transform="translate(11511 9780)" clip-path="url(#clip-path)">
    <circle id="Ellipse_145" data-name="Ellipse 145" cx="250" cy="250" r="250" transform="translate(-11451 -9778)" fill="#211d98"/>
    <circle id="Ellipse_142" data-name="Ellipse 142" cx="84" cy="84" r="84" transform="translate(-9717 -9336)" fill="#4b83f5"/>
    <circle id="Ellipse_139" data-name="Ellipse 139" cx="207" cy="207" r="207" transform="translate(-10026 -9112)" fill="#fe9000"/>
    <g id="Repeat_Grid_10" data-name="Repeat Grid 10" transform="translate(-11257.396 -8991.909) rotate(45)" clip-path="url(#clip-path-2)">
      <g transform="translate(-77 -787)">
        <circle id="Ellipse_144" data-name="Ellipse 144" cx="10" cy="10" r="10" transform="translate(77 787)" fill="rgba(255,0,0,0.6)"/>
      </g>
      <g transform="translate(-46 -787)">
        <circle id="Ellipse_144-2" data-name="Ellipse 144" cx="10" cy="10" r="10" transform="translate(77 787)" fill="rgba(255,0,0,0.6)"/>
      </g>
      <g transform="translate(-15 -787)">
        <circle id="Ellipse_144-3" data-name="Ellipse 144" cx="10" cy="10" r="10" transform="translate(77 787)" fill="rgba(255,0,0,0.6)"/>
      </g>
      <g transform="translate(16 -787)">
        <circle id="Ellipse_144-4" data-name="Ellipse 144" cx="10" cy="10" r="10" transform="translate(77 787)" fill="rgba(255,0,0,0.6)"/>
      </g>
      <g transform="translate(47 -787)">
        <circle id="Ellipse_144-5" data-name="Ellipse 144" cx="10" cy="10" r="10" transform="translate(77 787)" fill="rgba(255,0,0,0.6)"/>
      </g>
      <g transform="translate(78 -787)">
        <circle id="Ellipse_144-6" data-name="Ellipse 144" cx="10" cy="10" r="10" transform="translate(77 787)" fill="rgba(255,0,0,0.6)"/>
      </g>
      <g transform="translate(-77 -756)">
        <circle id="Ellipse_144-7" data-name="Ellipse 144" cx="10" cy="10" r="10" transform="translate(77 787)" fill="rgba(255,0,0,0.6)"/>
      </g>
      <g transform="translate(-46 -756)">
        <circle id="Ellipse_144-8" data-name="Ellipse 144" cx="10" cy="10" r="10" transform="translate(77 787)" fill="rgba(255,0,0,0.6)"/>
      </g>
      <g transform="translate(-15 -756)">
        <circle id="Ellipse_144-9" data-name="Ellipse 144" cx="10" cy="10" r="10" transform="translate(77 787)" fill="rgba(255,0,0,0.6)"/>
      </g>
      <g transform="translate(16 -756)">
        <circle id="Ellipse_144-10" data-name="Ellipse 144" cx="10" cy="10" r="10" transform="translate(77 787)" fill="rgba(255,0,0,0.6)"/>
      </g>
      <g transform="translate(47 -756)">
        <circle id="Ellipse_144-11" data-name="Ellipse 144" cx="10" cy="10" r="10" transform="translate(77 787)" fill="rgba(255,0,0,0.6)"/>
      </g>
      <g transform="translate(78 -756)">
        <circle id="Ellipse_144-12" data-name="Ellipse 144" cx="10" cy="10" r="10" transform="translate(77 787)" fill="rgba(255,0,0,0.6)"/>
      </g>
      <g transform="translate(-77 -725)">
        <circle id="Ellipse_144-13" data-name="Ellipse 144" cx="10" cy="10" r="10" transform="translate(77 787)" fill="rgba(255,0,0,0.6)"/>
      </g>
      <g transform="translate(-46 -725)">
        <circle id="Ellipse_144-14" data-name="Ellipse 144" cx="10" cy="10" r="10" transform="translate(77 787)" fill="rgba(255,0,0,0.6)"/>
      </g>
      <g transform="translate(-15 -725)">
        <circle id="Ellipse_144-15" data-name="Ellipse 144" cx="10" cy="10" r="10" transform="translate(77 787)" fill="rgba(255,0,0,0.6)"/>
      </g>
      <g transform="translate(16 -725)">
        <circle id="Ellipse_144-16" data-name="Ellipse 144" cx="10" cy="10" r="10" transform="translate(77 787)" fill="rgba(255,0,0,0.6)"/>
      </g>
      <g transform="translate(47 -725)">
        <circle id="Ellipse_144-17" data-name="Ellipse 144" cx="10" cy="10" r="10" transform="translate(77 787)" fill="rgba(255,0,0,0.6)"/>
      </g>
      <g transform="translate(78 -725)">
        <circle id="Ellipse_144-18" data-name="Ellipse 144" cx="10" cy="10" r="10" transform="translate(77 787)" fill="rgba(255,0,0,0.6)"/>
      </g>
      <g transform="translate(-77 -694)">
        <circle id="Ellipse_144-19" data-name="Ellipse 144" cx="10" cy="10" r="10" transform="translate(77 787)" fill="rgba(255,0,0,0.6)"/>
      </g>
      <g transform="translate(-46 -694)">
        <circle id="Ellipse_144-20" data-name="Ellipse 144" cx="10" cy="10" r="10" transform="translate(77 787)" fill="rgba(255,0,0,0.6)"/>
      </g>
      <g transform="translate(-15 -694)">
        <circle id="Ellipse_144-21" data-name="Ellipse 144" cx="10" cy="10" r="10" transform="translate(77 787)" fill="rgba(255,0,0,0.6)"/>
      </g>
      <g transform="translate(16 -694)">
        <circle id="Ellipse_144-22" data-name="Ellipse 144" cx="10" cy="10" r="10" transform="translate(77 787)" fill="rgba(255,0,0,0.6)"/>
      </g>
      <g transform="translate(47 -694)">
        <circle id="Ellipse_144-23" data-name="Ellipse 144" cx="10" cy="10" r="10" transform="translate(77 787)" fill="rgba(255,0,0,0.6)"/>
      </g>
      <g transform="translate(78 -694)">
        <circle id="Ellipse_144-24" data-name="Ellipse 144" cx="10" cy="10" r="10" transform="translate(77 787)" fill="rgba(255,0,0,0.6)"/>
      </g>
      <g transform="translate(-77 -663)">
        <circle id="Ellipse_144-25" data-name="Ellipse 144" cx="10" cy="10" r="10" transform="translate(77 787)" fill="rgba(255,0,0,0.6)"/>
      </g>
      <g transform="translate(-46 -663)">
        <circle id="Ellipse_144-26" data-name="Ellipse 144" cx="10" cy="10" r="10" transform="translate(77 787)" fill="rgba(255,0,0,0.6)"/>
      </g>
      <g transform="translate(-15 -663)">
        <circle id="Ellipse_144-27" data-name="Ellipse 144" cx="10" cy="10" r="10" transform="translate(77 787)" fill="rgba(255,0,0,0.6)"/>
      </g>
      <g transform="translate(16 -663)">
        <circle id="Ellipse_144-28" data-name="Ellipse 144" cx="10" cy="10" r="10" transform="translate(77 787)" fill="rgba(255,0,0,0.6)"/>
      </g>
      <g transform="translate(47 -663)">
        <circle id="Ellipse_144-29" data-name="Ellipse 144" cx="10" cy="10" r="10" transform="translate(77 787)" fill="rgba(255,0,0,0.6)"/>
      </g>
      <g transform="translate(78 -663)">
        <circle id="Ellipse_144-30" data-name="Ellipse 144" cx="10" cy="10" r="10" transform="translate(77 787)" fill="rgba(255,0,0,0.6)"/>
      </g>
      <g transform="translate(-77 -632)">
        <circle id="Ellipse_144-31" data-name="Ellipse 144" cx="10" cy="10" r="10" transform="translate(77 787)" fill="rgba(255,0,0,0.6)"/>
      </g>
      <g transform="translate(-46 -632)">
        <circle id="Ellipse_144-32" data-name="Ellipse 144" cx="10" cy="10" r="10" transform="translate(77 787)" fill="rgba(255,0,0,0.6)"/>
      </g>
      <g transform="translate(-15 -632)">
        <circle id="Ellipse_144-33" data-name="Ellipse 144" cx="10" cy="10" r="10" transform="translate(77 787)" fill="rgba(255,0,0,0.6)"/>
      </g>
      <g transform="translate(16 -632)">
        <circle id="Ellipse_144-34" data-name="Ellipse 144" cx="10" cy="10" r="10" transform="translate(77 787)" fill="rgba(255,0,0,0.6)"/>
      </g>
      <g transform="translate(47 -632)">
        <circle id="Ellipse_144-35" data-name="Ellipse 144" cx="10" cy="10" r="10" transform="translate(77 787)" fill="rgba(255,0,0,0.6)"/>
      </g>
      <g transform="translate(78 -632)">
        <circle id="Ellipse_144-36" data-name="Ellipse 144" cx="10" cy="10" r="10" transform="translate(77 787)" fill="rgba(255,0,0,0.6)"/>
      </g>
    </g>
  </g>
</svg>
